<svg width="512" height="512" viewBox="0 0 512 512" fill="none" xmlns="http://www.w3.org/2000/svg"><path fill-rule="evenodd" clip-rule="evenodd" d="M6.60858 344.657L107.32 208.742L134.872 223.466L200.43 117L241.283 165.704L256.486 153.245L315.391 227.998L357.197 178.161L474.058 344.657L361.472 203.081L344.369 262.543L360.046 309.548L259.335 170.801L258.245 218.141L315.391 344.657L208.504 148.713L239.384 254.615L196.155 151.545L172.402 220.07L177.151 175.329L117.769 336.729L124.893 268.771L100.192 241.59L6.60858 344.657Z" fill="#F9FBFD"/><path fill-rule="evenodd" clip-rule="evenodd" d="M507.914 365.915C348.46 237.159 100.272 414.171 0 345.908C110.243 442.643 367.923 279.117 507.914 365.915Z" fill="#F9FBFD"/><path fill-rule="evenodd" clip-rule="evenodd" d="M512 376.04C386.894 296.325 200.827 407.259 105.464 381.57C208.798 431.721 401.175 320.601 512 376.04Z" fill="#F9FBFD"/></svg>